DBRep_DrawableShape

CASCADE Topology V3, (c) Open Cascade
Locations 3
1
              0              -1               0            0.52 
              1               0               0 0.196499999999999 
              0               0               1               0 
1
              1               0               0               0 
              0               1               0               0 
              0               0               1             3.1 
2  2 1 1 1 0
Curve2ds 0
Curves 8
1 -0.0079999999999981804 -0.50399999999999812 0 0 0 1 
1 0.0079999999999981804 -0.50399999999999812 0 0 0 1 
1 -0.0079999999999981804 -0.50399999999999812 0 1 0 0 
1 0.0079999999999981804 0.50399999999999812 0 0 0 1 
1 0.0079999999999981804 -0.50399999999999812 0 0 1 0 
1 -0.0079999999999981804 0.50399999999999812 0 0 0 1 
1 0.0079999999999981804 0.50399999999999812 0 -1 0 0 
1 -0.0079999999999981804 0.50399999999999812 0 0 -1 0 
Polygon3D 0
PolygonOnTriangulations 0
Surfaces 5
1 -0.0079999999999981804 -0.50399999999999812 0 0 1 0 1 0 0 0 0 -1 
1 0.0079999999999981804 -0.50399999999999812 0 -1 0 0 0 1 0 0 0 -1 
1 0.0079999999999981804 0.50399999999999812 0 0 -1 0 -1 0 0 -0 -0 -1 
1 -0.0079999999999981804 0.50399999999999812 0 1 0 -0 0 -1 0 0 -0 -1 
1 0 0 0 0 0 1 1 0 -0 -0 1 0 
Triangulations 0

TShapes 24
Ve
1e-05
-0.00799999999999818 -0.503999999999998 0
0 0

0101101
*
Ed
 1e-05 1 1 0
1  1 0 0 3.1
0

0101000
+24 0 -24 2 *
Ve
1e-05
0.00799999999999818 -0.503999999999998 0
0 0

0101101
*
Ed
 1e-05 1 1 0
1  2 0 0 3.1
0

0101000
+22 0 -22 2 *
Ed
 1e-05 1 1 0
1  3 0 0 0.0159999999999964
0

0101000
+24 0 -22 0 *
Wi

0101100
+23 0 -21 0 -20 0 +20 2 *
Fa
0  1e-05 1 0

0101000
+19 0 *
Ve
1e-05
0.00799999999999818 0.503999999999998 0
0 0

0101101
*
Ed
 1e-05 1 1 0
1  4 0 0 3.1
0

0101000
+17 0 -17 2 *
Ed
 1e-05 1 1 0
1  5 0 0 1.008
0

0101000
+22 0 -17 0 *
Wi

0101100
+21 0 -16 0 -15 0 +15 2 *
Fa
0  1e-05 2 0

0101000
+14 0 *
Ve
1e-05
-0.00799999999999818 0.503999999999998 0
0 0

0101101
*
Ed
 1e-05 1 1 0
1  6 0 0 3.1
0

0101000
+12 0 -12 2 *
Ed
 1e-05 1 1 0
1  7 0 0 0.0159999999999964
0

0101000
+17 0 -12 0 *
Wi

0101100
+16 0 -11 0 -10 0 +10 2 *
Fa
0  1e-05 3 0

0101000
+9 0 *
Ed
 1e-05 1 1 0
1  8 0 0 1.008
0

0101000
+12 0 -24 0 *
Wi

0101100
+11 0 -23 0 -7 0 +7 2 *
Fa
0  1e-05 4 0

0101000
+6 0 *
Wi

0101100
+20 0 +15 0 +10 0 +7 0 *
Fa
0  1e-07 5 0

0101000
+4 0 *
Sh

0101100
-18 1 -13 1 -8 1 -5 1 -3 1 +3 3 *
So

1100000
+2 0 *

+1 0 